<svg width="46" height="46" viewBox="0 0 46 46" fill="none" xmlns="http://www.w3.org/2000/svg">
<path d="M36.7988 45H9.20118C4.64497 45 1 41.355 1 36.7988V9.20118C1 4.64497 4.64497 1 9.20118 1H36.7988C41.355 1 45 4.64497 45 9.20118V36.7988C45 41.355 41.355 45 36.7988 45Z" stroke="white" stroke-width="2" stroke-miterlimit="10" stroke-linecap="round" stroke-linejoin="round"/>
<path d="M36.7988 45H9.20118C4.64497 45 1 41.355 1 36.7988V9.20118C1 4.64497 4.64497 1 9.20118 1H36.7988C41.355 1 45 4.64497 45 9.20118V36.7988C45 41.355 41.355 45 36.7988 45Z" stroke="black" stroke-opacity="0.2" stroke-width="2" stroke-miterlimit="10" stroke-linecap="round" stroke-linejoin="round"/>
</svg>
